<?xml version="1.0" encoding="utf-8"?>
<!-- Generator: Adobe Illustrator 26.5.1, SVG Export Plug-In . SVG Version: 6.00 Build 0)  -->
<svg version="1.1" id="Layer_1" xmlns="http://www.w3.org/2000/svg" xmlns:xlink="http://www.w3.org/1999/xlink" x="0px" y="0px"
	 viewBox="0 0 569.78 6.56" style="enable-background:new 0 0 569.78 6.56;" xml:space="preserve">
<style type="text/css">
	.st0{fill:#8FC640;stroke:#FFFFFF;stroke-width:0.1476;stroke-miterlimit:10;}
	.st1{fill:#03854A;stroke:#FFFFFF;stroke-width:0.1476;stroke-miterlimit:10;}
	.st2{fill:#63B448;stroke:#FFFFFF;stroke-width:0.1476;stroke-miterlimit:10;}
</style>
<g>
	<path class="st0" d="M110.35,0L0,0v4.56h110.35c1.26,0,2.28-1.02,2.28-2.28v0C112.63,1.02,111.61,0,110.35,0z"/>
	<path class="st1" d="M111.88,2h457.9v4.56h-457.9c-1.26,0-2.28-1.02-2.28-2.28v0C109.6,3.03,110.62,2,111.88,2z"/>
	<path class="st2" d="M109.6,4.26L109.6,4.26c0,0.09,0.01,0.18,0.02,0.28h0.73c1.26,0,2.28-1.02,2.28-2.28
		c0-0.09-0.01-0.18-0.02-0.28h-0.73C110.62,1.98,109.6,3,109.6,4.26z"/>
</g>
</svg>
