<?xml version="1.0" encoding="utf-8"?>
<!-- Generator: Adobe Illustrator 26.5.1, SVG Export Plug-In . SVG Version: 6.00 Build 0)  -->
<svg version="1.1" id="Layer_1" xmlns="http://www.w3.org/2000/svg" xmlns:xlink="http://www.w3.org/1999/xlink" x="0px" y="0px"
	 viewBox="0 0 114.3 50.5" style="enable-background:new 0 0 114.3 50.5;" xml:space="preserve">
<style type="text/css">
	.st0{fill:#00854A;}
	.st1{fill:url(#SVGID_1_);}
	.st2{fill:url(#SVGID_00000052820715932269991960000010786697645031820732_);}
	.st3{fill:url(#SVGID_00000110445659832750553240000013473597104720798098_);}
</style>
<g>
	<g>
		<path class="st0" d="M67.7,28.5h-4.4v-1.8h-1.9v0.1c0,0.3,0.1,0.5,0.4,0.6v1h-4.4c-0.2,0-0.3,0.1-0.5,0.2
			c-0.1,0.1-0.2,0.3-0.2,0.5c0,0.2,0.1,0.4,0.2,0.5s0.3,0.2,0.5,0.2h10.3c0.2,0,0.3-0.1,0.5-0.2c0.1-0.1,0.2-0.3,0.2-0.5
			c0-0.2-0.1-0.4-0.2-0.5C68.1,28.6,67.9,28.5,67.7,28.5z"/>
		<path class="st0" d="M66.4,32.6h-5.9c-0.3,0-0.4-0.1-0.4-0.4v-1.5h-2v0.1c0,0.3,0.1,0.5,0.4,0.6v1.1c0,0.9,0.5,1.4,1.6,1.4h6.4
			c0.2,0,0.3-0.1,0.5-0.2c0.1-0.1,0.2-0.3,0.2-0.5c0-0.2-0.1-0.3-0.2-0.5C66.7,32.7,66.6,32.6,66.4,32.6z"/>
		<path class="st0" d="M58.1,27.6c0.1,0,0.3,0,0.4,0c0.6-0.2,1.1-0.4,1.5-0.6s0.8-0.5,1.1-0.7c0.6-0.4,1.1-0.9,1.5-1.5
			c0.4,0.6,0.9,1.1,1.5,1.5c0.3,0.2,0.7,0.5,1.1,0.7c0.4,0.2,0.9,0.4,1.5,0.6c0.1,0,0.3,0,0.4,0c0.2,0,0.4-0.1,0.5-0.4
			c0.1-0.2,0.1-0.4,0-0.6c-0.1-0.1-0.2-0.3-0.5-0.3c-0.6-0.2-1-0.4-1.5-0.6c-0.4-0.2-0.8-0.5-1.1-0.8c-0.8-0.7-1.2-1.5-1.2-2.5v-0.2
			h-2v0.1c0,0.1,0,0.2,0.1,0.3c0,0.1,0.1,0.2,0.2,0.3c0,0.6-0.4,1.3-1.1,2c-0.3,0.3-0.6,0.5-1,0.8s-0.9,0.5-1.5,0.6
			c-0.2,0.1-0.4,0.2-0.5,0.3c-0.1,0.2-0.1,0.4,0,0.6C57.7,27.4,57.9,27.6,58.1,27.6z"/>
		<path class="st0" d="M79.5,25.6h-1v-3.4h-1.9v0.1c0,0.3,0.1,0.5,0.4,0.6v10.4c0,0.2,0.1,0.4,0.2,0.5c0.1,0.2,0.3,0.2,0.5,0.2
			c0.2,0,0.4-0.1,0.5-0.2c0.2-0.1,0.2-0.3,0.2-0.5V27h1v6.4c0,0.2,0.1,0.4,0.2,0.5c0.2,0.2,0.3,0.2,0.5,0.2c0.2,0,0.4-0.1,0.5-0.2
			c0.2-0.2,0.2-0.3,0.2-0.5V22.2h-1.5V25.6z"/>
		<path class="st0" d="M75.7,23.3h-2v-1.2H72v1.2h-2.1c-0.2,0-0.4,0.1-0.5,0.2c-0.1,0.1-0.2,0.3-0.2,0.5c0,0.2,0.1,0.3,0.2,0.5
			c0.1,0.1,0.3,0.2,0.5,0.2h0.5c-0.2,0.2-0.4,0.5-0.5,0.8c-0.2,0.4-0.3,0.8-0.3,1.2c0,0.5,0.1,0.9,0.3,1.3c0.2,0.4,0.4,0.7,0.7,1
			c0.3,0.3,0.6,0.5,1,0.7c0.4,0.2,0.8,0.3,1.3,0.3c0.4,0,0.9-0.1,1.2-0.3s0.7-0.4,1-0.7c0.3-0.3,0.5-0.6,0.7-1
			c0.2-0.4,0.2-0.8,0.2-1.3c0-0.4-0.1-0.9-0.3-1.2c-0.1-0.3-0.3-0.6-0.5-0.8h0.4c0.2,0,0.3-0.1,0.5-0.2c0.1-0.1,0.2-0.3,0.2-0.5
			c0-0.2-0.1-0.3-0.2-0.5C76,23.3,75.8,23.3,75.7,23.3z M74.4,27.4c-0.1,0.2-0.2,0.4-0.4,0.6c-0.2,0.2-0.3,0.3-0.6,0.4
			c-0.2,0.1-0.4,0.1-0.7,0.1c-0.2,0-0.5,0-0.7-0.1s-0.4-0.2-0.6-0.4c-0.2-0.2-0.3-0.4-0.4-0.6c-0.1-0.2-0.1-0.5-0.1-0.8
			s0-0.5,0.1-0.8c0.1-0.2,0.2-0.4,0.4-0.6c0.2-0.2,0.3-0.3,0.6-0.4c0.2-0.1,0.4-0.1,0.7-0.1c0.2,0,0.4,0,0.7,0.1
			c0.2,0.1,0.4,0.2,0.6,0.4c0.2,0.2,0.3,0.4,0.4,0.6c0.1,0.2,0.1,0.5,0.1,0.8C74.6,26.9,74.5,27.2,74.4,27.4z"/>
		<path class="st0" d="M93.7,31.1h-4.4v-2h1.8c1,0,1.5-0.5,1.5-1.4v-5.2h-1.9v0.1c0,0.3,0.1,0.5,0.3,0.6v1.2h-5.1v-1.9h-2v0.1
			c0,0.3,0.1,0.5,0.4,0.6v4.5c0,0.9,0.5,1.4,1.5,1.4h1.8v2h-4.4c-0.2,0-0.3,0.1-0.5,0.2c-0.1,0.1-0.2,0.3-0.2,0.5
			c0,0.2,0.1,0.3,0.2,0.5c0.1,0.1,0.3,0.2,0.5,0.2h10.3c0.2,0,0.3-0.1,0.5-0.2c0.1-0.1,0.2-0.3,0.2-0.5c0-0.2-0.1-0.4-0.2-0.5
			C94,31.2,93.9,31.1,93.7,31.1z M86.3,27.8c-0.3,0-0.4-0.1-0.4-0.4v-1.5h5.1v1.5c0,0.3-0.1,0.4-0.4,0.4H86.3z"/>
		<path class="st0" d="M103.6,22.2v0.1c0,0.3,0.1,0.5,0.4,0.6v2.4h-2.2c0-0.1-0.1-0.1-0.1-0.2c-0.1-0.3-0.3-0.5-0.6-0.8h0.9
			c0.2,0,0.3-0.1,0.4-0.2c0.1-0.1,0.2-0.3,0.2-0.4c0-0.2-0.1-0.3-0.2-0.4c-0.1-0.1-0.3-0.2-0.4-0.2h-2.3V22h-1.8v1.1h-2.3
			c-0.2,0-0.3,0.1-0.4,0.2c-0.1,0.1-0.2,0.3-0.2,0.4c0,0.2,0.1,0.3,0.2,0.4c0.1,0.1,0.3,0.2,0.4,0.2h0.8c-0.2,0.2-0.4,0.5-0.6,0.8
			c-0.2,0.3-0.2,0.7-0.2,1.1c0,0.4,0.1,0.8,0.2,1.1c0.2,0.3,0.4,0.6,0.7,0.9c0.3,0.2,0.6,0.5,1,0.6c0.4,0.1,0.8,0.2,1.2,0.2
			c0.4,0,0.8-0.1,1.2-0.2c0.4-0.1,0.7-0.4,1-0.6c0.3-0.3,0.5-0.6,0.7-0.9c0.1-0.2,0.2-0.4,0.2-0.7h2.1v1.8c0,0.2,0.1,0.4,0.2,0.6
			c0.2,0.1,0.3,0.2,0.6,0.2s0.4-0.1,0.6-0.2c0.2-0.2,0.2-0.3,0.2-0.6v-6.2C105.5,22.2,103.6,22.2,103.6,22.2z M99.9,27.3
			c-0.3,0.3-0.7,0.5-1.1,0.5c-0.5,0-0.9-0.1-1.2-0.5s-0.4-0.7-0.4-1.1s0.2-0.8,0.4-1.1c0.3-0.3,0.7-0.5,1.2-0.5
			c0.5,0,0.8,0.1,1.1,0.5c0.3,0.3,0.4,0.7,0.4,1.1C100.3,26.6,100.2,27,99.9,27.3z"/>
		<path class="st0" d="M97.1,29.8c0,0.3,0.1,0.5,0.4,0.6v2.2c0,0.9,0.5,1.4,1.5,1.4h5c1,0,1.5-0.5,1.5-1.4v-2.9h-8.5V29.8z M99,30.9
			h4.9v1.3c0,0.3-0.1,0.4-0.4,0.4h-4.1c-0.3,0-0.4-0.1-0.4-0.4V30.9z"/>
		<g>
			<g>
				<path class="st0" d="M38.2,22h-4.5v12.3h4.5c3.7,0,6.4-2.6,6.4-6.1C44.6,24.5,42,22,38.2,22 M42.4,28.1c0,2.6-1.7,4.3-4.3,4.3
					h-2.3v-8.5h2.3C40.8,23.9,42.4,25.5,42.4,28.1z"/>
				<path class="st0" d="M53.3,27.9c0.8-0.5,1.3-1.6,1.3-2.8c0-2-1.6-3.2-4.2-3.2h-4.9v12.3h5c3,0,4.8-1.3,4.8-3.5
					C55.3,29.5,54.6,28.5,53.3,27.9 M49.6,27c-0.4,0.1-0.6,0.3-0.7,0.7c0,0.3,0,0.6,0.2,0.8c0.1,0.2,0.3,0.3,0.5,0.3
					c0.3,0,0.6,0.1,0.9,0.1c1,0,2,0.1,2.5,1c0.3,0.5,0.2,1.2-0.1,1.6c-0.3,0.5-1,0.8-2,0.8c-0.1,0-0.2,0-0.4,0h-2.7v-8.5h2.5
					c1.6,0,2.3,0.5,2.3,1.5c0,0.5-0.2,1-0.6,1.4C51.5,26.9,51,27,50.4,27C50.2,27,49.9,27,49.6,27z"/>
			</g>
		</g>
	</g>
	<g>
		
			<linearGradient id="SVGID_1_" gradientUnits="userSpaceOnUse" x1="-589.8256" y1="151.3397" x2="-589.6518" y2="151.3397" gradientTransform="matrix(-55.2061 -0.5263 0.5263 -55.2061 -32623.5371 8074.3384)">
			<stop  offset="0.1" style="stop-color:#F47920"/>
			<stop  offset="0.2641" style="stop-color:#F07422"/>
			<stop  offset="0.4789" style="stop-color:#E76725"/>
			<stop  offset="0.7219" style="stop-color:#DB4F28"/>
			<stop  offset="0.9837" style="stop-color:#CA282B"/>
			<stop  offset="1" style="stop-color:#C9252C"/>
		</linearGradient>
		<path class="st1" d="M15.5,23.9c-0.8-0.7-1.7-1.3-2.8-1.7c-0.6-0.2-1.5-0.5-2.3-0.5c-0.7,0-1.3,0.2-1.4,0.9
			c-0.3,1.3-0.1,12.5-0.1,13.8c0.1,1,0.5,1.5,1.6,1.5C18.2,37.8,20.2,28.4,15.5,23.9z"/>
		
			<linearGradient id="SVGID_00000039096534896039601480000005351886619898598582_" gradientUnits="userSpaceOnUse" x1="-587.806" y1="168.5569" x2="-587.6321" y2="168.5569" gradientTransform="matrix(49.4099 0.471 -0.471 49.4099 29141.0996 -8031.2324)">
			<stop  offset="0" style="stop-color:#14B1E7"/>
			<stop  offset="1" style="stop-color:#0061AF"/>
		</linearGradient>
		<path style="fill:url(#SVGID_00000039096534896039601480000005351886619898598582_);" d="M24.3,15c-0.7-0.6-1.5-1.2-2.6-1.5
			c-0.5-0.2-1.4-0.4-2.1-0.4c-0.6,0-1.1,0.2-1.3,0.8c-0.3,1.2-0.1,11.3,0,12.5c0.1,0.9,0.4,1.4,1.4,1.4C26.8,27.5,28.7,19,24.3,15z"
			/>
		
			<linearGradient id="SVGID_00000145059380632344436690000008324087821417293754_" gradientUnits="userSpaceOnUse" x1="-588.216" y1="164.7664" x2="-588.0422" y2="164.7664" gradientTransform="matrix(73.0234 0.6962 -0.6962 73.0234 43087.1406 -11591.2041)">
			<stop  offset="0" style="stop-color:#8DC63F"/>
			<stop  offset="0.1462" style="stop-color:#87C341"/>
			<stop  offset="0.3375" style="stop-color:#77BB45"/>
			<stop  offset="0.5538" style="stop-color:#58B04C"/>
			<stop  offset="0.7868" style="stop-color:#00A253"/>
			<stop  offset="1" style="stop-color:#009559"/>
		</linearGradient>
		<path style="fill:url(#SVGID_00000145059380632344436690000008324087821417293754_);" d="M27.5,24.4c-0.9-0.8-2-1.5-3.2-1.9
			c-0.6-0.2-1.7-0.6-2.6-0.6c-0.8,0-1.5,0.2-1.6,1c-0.3,1.5-0.2,14.2-0.1,15.7c0.1,1.1,0.5,1.7,1.8,1.7
			C30.6,40.2,32.9,29.4,27.5,24.4z"/>
	</g>
</g>
</svg>
